[Header]                  # Header keywords are followed by a single value
FileType htr              # single word string
DataType HTRS             # Hierarchical translations followed by rotations and Scale
FileVersion 1             # integer
NumSegments   22        # integer
NumFrames   4          # integer
DataFrameRate    60      # integer
EulerRotationOrder ZYX    # one word string
CalibrationUnits mm   # one word string
RotationUnits Degrees     # one word string
GlobalAxisofGravity Y        # character, X or Y or Z
BoneLengthAxis Y
ScaleFactor 1.0000
[SegmentNames&Hierarchy]
#CHILD         PARENT
LowerTorso	GLOBAL
MidTorso1	LowerTorso
MidTorso2	MidTorso1
UpperTorso	MidTorso2
Neck	UpperTorso
Head	Neck
LCollar	UpperTorso
LUpArm	LCollar
LLowArm	LUpArm
LHand	LLowArm
RCollar	UpperTorso
RUpArm	RCollar
RLowArm	RUpArm
RHand	RLowArm
RThigh	LowerTorso
RLowLeg	RThigh
RFoot	RLowLeg
RToe	RFoot
LThigh	LowerTorso
LLowLeg	LThigh
LFoot	LLowLeg
LToe	LFoot
[BasePosition]
#SegmentName Tx, Ty, Tz, Rx, Ry, Rz, BoneLength
LowerTorso	245.858011	950.547112	300.901792	3.160114	-0.119681	0.216534	50.177140	
MidTorso1	0.000000	50.177140	0.000000	12.744977	0.544086	-1.233692	50.243103	
MidTorso2	0.000000	50.243103	0.000000	-8.561622	-5.666755	-0.324056	70.108070	
UpperTorso	0.000000	70.108070	0.000000	-7.840640	5.423498	1.565454	211.798493	
Neck	0.000000	211.798493	0.000000	3.763396	2.354772	0.143986	247.477358	
Head	0.000000	247.477358	0.000000	87.188098	-1.617490	-0.909978	97.755902	
LCollar	5.963899	207.774288	0.020038	-0.085181	3.120430	-88.053499	154.341182	
LUpArm	0.000000	154.341182	0.000000	17.609330	2.601210	1.098979	257.694232	
LLowArm	0.000000	257.694232	0.000000	-4.295116	-4.411555	-0.381267	245.288314	
LHand	0.000000	245.288314	0.000000	-1.254656	0.451892	-3.187610	143.943585	
RCollar	-6.407295	207.548200	-0.033576	-3.957489	-2.573361	89.782717	159.716168	
RUpArm	0.000000	159.716168	0.000000	10.569861	0.025507	1.593474	259.181013	
RLowArm	0.000000	259.181013	0.000000	2.433186	-0.094719	0.439860	254.783021	
RHand	0.000000	254.783021	0.000000	-2.521327	-1.940663	10.821380	138.724995	
RThigh	-104.582724	-43.868855	71.110148	1.186921	1.056410	177.271085	484.665755	
RLowLeg	0.000000	484.665755	0.000000	-9.413113	-2.560999	2.584420	338.943480	
RFoot	0.000000	338.943480	0.000000	38.119802	-1.210697	-2.462270	108.422675	
RToe	0.000000	108.422675	0.000000	62.205972	5.729825	0.107186	135.948299	
LThigh	104.514322	-44.027056	71.110540	1.887019	-3.794944	-176.973714	484.665500	
LLowLeg	0.000000	484.665500	0.000000	-9.413064	2.561022	-2.584327	338.944952	
LFoot	0.000000	338.944952	0.000000	38.119895	1.210631	2.462181	108.422417	
LToe	0.000000	108.422417	0.000000	62.206117	-5.729564	-0.107296	135.948400	
#Beginning of Data. Separated by tabs
[LowerTorso]
#Fr     Tx      Ty      Tz      Rx      Ry      Rz      SF
394	487.807678	24.008947	404.517670	-162.087570	-64.686661	167.063385	1.000000	
395	495.811310	42.327141	401.150421	-157.310089	-70.418282	162.203110	1.000000	
396	502.562653	56.669754	397.951385	-149.935547	-75.438759	154.717285	1.000000	
397	506.352661	67.637451	396.343994	-133.044983	-80.223862	135.458893	1.000000	
[MidTorso1]
#Fr     Tx      Ty      Tz      Rx      Ry      Rz      SF
394	0.000000	0.000000	0.000000	-0.128394	2.172901	1.153556	1.000000	
395	0.000000	0.000000	0.000000	-0.227977	2.835676	0.612755	1.000000	
396	0.000000	0.000000	0.000000	-0.341317	3.303742	0.144625	1.000000	
397	0.000000	0.000000	0.000000	0.547799	3.082906	-0.092618	1.000000	
[MidTorso2]
#Fr     Tx      Ty      Tz      Rx      Ry      Rz      SF
394	0.000000	0.000000	0.000000	-0.022185	1.973233	1.476171	1.000000	
395	0.000000	0.000000	0.000000	-0.171991	2.707689	1.051585	1.000000	
396	0.000000	0.000000	0.000000	-0.328203	3.238240	0.669886	1.000000	
397	0.000000	0.000000	0.000000	0.528117	3.073424	0.315957	1.000000	
[UpperTorso]
#Fr     Tx      Ty      Tz      Rx      Ry      Rz      SF
394	0.000000	0.000000	0.000000	-0.106852	1.756105	1.724354	1.000000	
395	0.000000	0.000000	0.000000	-0.191058	2.545760	1.395141	1.000000	
396	0.000000	0.000000	0.000000	-0.292108	3.128191	1.080329	1.000000	
397	0.000000	0.000000	0.000000	0.592701	2.978157	0.787008	1.000000	
[Neck]
#Fr     Tx      Ty      Tz      Rx      Ry      Rz      SF
394	0.000000	0.000000	0.000000	3.101452	9.684092	-6.147552	1.000000	
395	0.000000	0.000000	0.000000	4.394532	6.096121	-6.176285	1.000000	
396	0.000000	0.000000	0.000000	6.178025	4.316629	-5.785832	1.000000	
397	0.000000	0.000000	0.000000	6.936410	3.780304	-5.577836	1.000000	
[Head]
#Fr     Tx      Ty      Tz      Rx      Ry      Rz      SF
394	0.000000	0.000000	0.000000	1.612766	-4.504368	0.131809	1.000000	
395	0.000000	0.000000	0.000000	1.519111	-3.872040	0.089335	1.000000	
396	0.000000	0.000000	0.000000	0.876604	-3.848548	0.128056	1.000000	
397	0.000000	0.000000	0.000000	0.652831	-3.507875	0.059694	1.000000	
[LCollar]
#Fr     Tx      Ty      Tz      Rx      Ry      Rz      SF
394	0.000000	0.000000	0.000000	9.679216	2.365710	-13.604473	1.000000	
395	0.000000	0.000000	0.000000	9.413218	2.434277	-14.369507	1.000000	
396	0.000000	0.000000	0.000000	8.747263	2.374668	-15.071174	1.000000	
397	0.000000	0.000000	0.000000	10.144572	2.657098	-14.524970	1.000000	
[LUpArm]
#Fr     Tx      Ty      Tz      Rx      Ry      Rz      SF
394	0.000000	0.000000	0.000000	3.502250	0.860783	-39.542332	1.000000	
395	0.000000	0.000000	0.000000	7.308212	3.477714	-38.799442	1.000000	
396	0.000000	0.000000	0.000000	11.004628	6.229012	-37.715191	1.000000	
397	0.000000	0.000000	0.000000	12.028482	6.804526	-38.745739	1.000000	
[LLowArm]
#Fr     Tx      Ty      Tz      Rx      Ry      Rz      SF
394	0.000000	0.000000	0.000000	126.334976	-0.010089	-0.019940	1.000000	
395	0.000000	0.000000	0.000000	125.505035	-0.010196	-0.019793	1.000000	
396	0.000000	0.000000	0.000000	124.906136	-0.010271	-0.019686	1.000000	
397	0.000000	0.000000	0.000000	126.420364	-0.010078	-0.019955	1.000000	
[LHand]
#Fr     Tx      Ty      Tz      Rx      Ry      Rz      SF
394	0.000000	0.000000	0.000000	27.830334	15.622025	-0.152387	1.000000	
395	0.000000	0.000000	0.000000	28.247107	15.817627	1.227664	1.000000	
396	0.000000	0.000000	0.000000	28.319477	16.487177	1.823175	1.000000	
397	0.000000	0.000000	0.000000	27.597761	17.564404	-0.372105	1.000000	
[RCollar]
#Fr     Tx      Ty      Tz      Rx      Ry      Rz      SF
394	0.000000	0.000000	0.000000	3.511243	-0.586173	9.465614	1.000000	
395	0.000000	0.000000	0.000000	5.473840	-0.755272	7.831996	1.000000	
396	0.000000	0.000000	0.000000	7.646420	-0.869428	6.448307	1.000000	
397	0.000000	0.000000	0.000000	5.639664	-0.620410	6.257393	1.000000	
[RUpArm]
#Fr     Tx      Ty      Tz      Rx      Ry      Rz      SF
394	0.000000	0.000000	0.000000	9.216509	0.277004	36.132565	1.000000	
395	0.000000	0.000000	0.000000	10.657331	3.776776	33.772045	1.000000	
396	0.000000	0.000000	0.000000	13.451332	7.496531	30.501055	1.000000	
397	0.000000	0.000000	0.000000	23.179888	10.360514	27.744030	1.000000	
[RLowArm]
#Fr     Tx      Ty      Tz      Rx      Ry      Rz      SF
394	0.000000	0.000000	0.000000	135.186661	-0.000014	0.000056	1.000000	
395	0.000000	0.000000	0.000000	133.720963	-0.000013	0.000056	1.000000	
396	0.000000	0.000000	0.000000	129.591873	-0.000011	0.000055	1.000000	
397	0.000000	0.000000	0.000000	118.366653	-0.000005	0.000053	1.000000	
[RHand]
#Fr     Tx      Ty      Tz      Rx      Ry      Rz      SF
394	0.000000	0.000000	0.000000	-170.688828	23.150549	-154.643066	1.000000	
395	0.000000	0.000000	0.000000	-165.969925	25.222853	-153.615799	1.000000	
396	0.000000	0.000000	0.000000	-160.085449	27.210688	-151.848679	1.000000	
397	0.000000	0.000000	0.000000	-158.294296	31.454054	-149.589340	1.000000	
[RThigh]
#Fr     Tx      Ty      Tz      Rx      Ry      Rz      SF
394	0.000000	0.000000	0.000000	5.460244	-8.939236	-15.074987	1.000000	
395	0.000000	0.000000	0.000000	6.146266	-9.351508	-12.646470	1.000000	
396	0.000000	0.000000	0.000000	7.477389	-9.433707	-10.427521	1.000000	
397	0.000000	0.000000	0.000000	5.811217	-7.929087	-9.044922	1.000000	
[RLowLeg]
#Fr     Tx      Ty      Tz      Rx      Ry      Rz      SF
394	0.000000	0.000000	0.000000	-32.672710	-0.000001	-0.000012	1.000000	
395	0.000000	0.000000	0.000000	-36.614491	-0.000001	-0.000013	1.000000	
396	0.000000	0.000000	0.000000	-40.471474	-0.000002	-0.000015	1.000000	
397	0.000000	0.000000	0.000000	-41.147408	-0.000002	-0.000015	1.000000	
[RFoot]
#Fr     Tx      Ty      Tz      Rx      Ry      Rz      SF
394	0.000000	0.000000	0.000000	-15.886814	1.775395	6.212594	1.000000	
395	0.000000	0.000000	0.000000	-12.675318	1.759428	7.773663	1.000000	
396	0.000000	0.000000	0.000000	-9.452760	1.602047	9.532043	1.000000	
397	0.000000	0.000000	0.000000	-9.798117	2.031440	11.599550	1.000000	
[RToe]
#Fr     Tx      Ty      Tz      Rx      Ry      Rz      SF
394	0.000000	0.000000	0.000000	0.639958	0.000001	0.000000	1.000000	
395	0.000000	0.000000	0.000000	-0.937822	-0.000002	0.000000	1.000000	
396	0.000000	0.000000	0.000000	-2.542886	-0.000005	-0.000001	1.000000	
397	0.000000	0.000000	0.000000	0.124275	0.000000	0.000000	1.000000	
[LThigh]
#Fr     Tx      Ty      Tz      Rx      Ry      Rz      SF
394	0.000000	0.000000	0.000000	32.725063	9.997554	6.921929	1.000000	
395	0.000000	0.000000	0.000000	32.853409	4.696310	1.329288	1.000000	
396	0.000000	0.000000	0.000000	32.922836	0.825015	-2.892270	1.000000	
397	0.000000	0.000000	0.000000	29.169344	1.563545	-5.820340	1.000000	
[LLowLeg]
#Fr     Tx      Ty      Tz      Rx      Ry      Rz      SF
394	0.000000	0.000000	0.000000	-12.451525	0.000023	-0.000008	1.000000	
395	0.000000	0.000000	0.000000	-18.222816	0.000033	-0.000013	1.000000	
396	0.000000	0.000000	0.000000	-25.225838	0.000044	-0.000021	1.000000	
397	0.000000	0.000000	0.000000	-27.476242	0.000047	-0.000024	1.000000	
[LFoot]
#Fr     Tx      Ty      Tz      Rx      Ry      Rz      SF
394	0.000000	0.000000	0.000000	-5.398969	-2.411053	-23.994459	1.000000	
395	0.000000	0.000000	0.000000	0.557149	0.241377	-23.428410	1.000000	
396	0.000000	0.000000	0.000000	5.402364	1.935852	-19.657438	1.000000	
397	0.000000	0.000000	0.000000	-0.993114	-0.222530	-12.626966	1.000000	
[LToe]
#Fr     Tx      Ty      Tz      Rx      Ry      Rz      SF
394	0.000000	0.000000	0.000000	-36.831215	-0.000101	0.000021	1.000000	
395	0.000000	0.000000	0.000000	-40.334900	-0.000110	0.000027	1.000000	
396	0.000000	0.000000	0.000000	-40.607796	-0.000110	0.000027	1.000000	
397	0.000000	0.000000	0.000000	-25.688868	-0.000072	0.000008	1.000000	
[EndOfFile]
